<svg width="400" height="107" viewBox="0 0 400 107" fill="none" xmlns="http://www.w3.org/2000/svg">
<path d="M144.369 79.5139C140.174 77.0304 136.699 73.4216 134.307 69.0655C131.91 64.4918 130.655 59.3676 130.655 54.1606C130.655 48.9534 131.91 43.8294 134.307 39.2557C136.703 34.9243 140.179 31.3436 144.369 28.8909C148.174 26.7326 152.385 25.4587 156.711 25.1574C161.037 24.8561 165.374 25.5346 169.423 27.1458C172.615 28.4429 175.51 30.4182 177.925 32.9447C180.089 35.2053 181.781 37.9049 182.895 40.8754C182.967 41.0726 182.962 41.2907 182.884 41.4851C182.805 41.6791 182.658 41.835 182.473 41.92L171.797 46.7055C170.798 43.9842 169.048 41.6292 166.766 39.9349C164.421 38.1989 161.597 37.2973 158.717 37.3647C156.05 37.3169 153.427 38.0679 151.161 39.5274C148.938 40.9772 147.141 43.0339 145.969 45.4726C144.73 48.1921 144.088 51.1628 144.088 54.171C144.088 57.1793 144.73 60.1501 145.969 62.8695C147.131 65.3321 148.928 67.4119 151.161 68.8773C153.43 70.3289 156.052 71.0759 158.717 71.0298C161.59 71.0997 164.409 70.2178 166.766 68.5118C169.09 66.7956 170.847 64.3763 171.797 61.5844L182.493 66.6101C182.676 66.6973 182.822 66.8537 182.898 67.0477C182.975 67.2418 182.977 67.4589 182.905 67.655C181.812 70.5582 180.15 73.1947 178.025 75.3972C175.606 77.93 172.712 79.9216 169.523 81.2486C165.465 82.8947 161.106 83.5919 156.759 83.2902C152.411 82.9888 148.181 81.6958 144.369 79.5035V79.5139Z" fill="white"/>
<path d="M203.916 79.4725C199.824 76.9273 196.477 73.2715 194.237 68.8985C191.902 64.3516 190.712 59.2661 190.775 54.114C190.68 48.9062 191.886 43.7618 194.277 39.1828C196.537 34.9238 199.846 31.3646 203.866 28.8702C207.972 26.3229 212.677 25.0064 217.459 25.0669C222.447 24.9036 227.378 26.2037 231.686 28.818C235.476 31.2024 238.555 34.6312 240.581 38.7232C242.653 42.9464 243.706 47.6293 243.65 52.369C243.65 53.381 243.6 54.3926 243.499 55.3991C243.419 56.2927 243.237 57.1733 242.955 58.0215H204.208C204.455 61.1298 205.631 64.0802 207.571 66.4609C209.511 68.8415 212.118 70.5335 215.029 71.3012C217.94 72.0686 221.009 71.873 223.808 70.7416C226.606 69.6105 228.995 67.5999 230.64 64.9907C230.739 64.8168 230.898 64.6885 231.085 64.6323C231.272 64.5759 231.473 64.5958 231.646 64.6877L241.506 69.7136C239.709 73.8595 236.675 77.2954 232.853 79.5142C228.495 82.152 223.519 83.4864 218.475 83.3697C213.369 83.4911 208.33 82.1422 203.916 79.4725ZM209.108 39.1828C206.659 41.3941 205.033 44.4251 204.51 47.7507H229.815C229.649 44.555 228.284 41.5537 226.011 39.392C223.671 37.2054 220.606 36.0446 217.459 36.1527C214.415 36.0859 211.449 37.1619 209.108 39.1828Z" fill="white"/>
<path d="M283.525 26.852L278.04 39.6095C277.982 39.7434 277.887 39.8568 277.768 39.9363C277.648 40.0161 277.51 40.0586 277.367 40.0588H267.186C266.979 40.0617 266.78 40.1487 266.635 40.3014C266.492 40.4538 266.411 40.6595 266.411 40.8739V82.1561H253.441V26.3086H265.595C265.804 26.3086 266.003 26.3945 266.151 26.5474C266.296 26.7001 266.38 26.9074 266.38 27.1237V36.6109L270.868 26.1623C270.924 26.0258 271.019 25.9095 271.139 25.8278C271.258 25.7461 271.399 25.7026 271.541 25.7026H282.842C282.972 25.6995 283.102 25.7322 283.217 25.7974C283.334 25.8625 283.431 25.9579 283.499 26.074C283.568 26.1901 283.606 26.323 283.612 26.4595C283.617 26.596 283.586 26.7311 283.525 26.852Z" fill="white"/>
<path d="M297.078 5.6749H308.335C308.465 5.67575 308.59 5.7097 308.705 5.77377C308.817 5.83782 308.911 5.92993 308.983 6.04185C309.052 6.15376 309.095 6.28193 309.105 6.41484C309.115 6.54778 309.092 6.68127 309.041 6.80334L303.547 19.5401C303.485 19.6803 303.386 19.7992 303.261 19.8825C303.136 19.9659 302.991 20.0102 302.843 20.0103H290.396L296.372 6.11374C296.438 5.97939 296.54 5.867 296.665 5.78941C296.79 5.71182 296.933 5.67214 297.078 5.6749Z" fill="white"/>
<path d="M291.181 26.3009H303.345V82.1378H290.396V27.1158C290.396 26.8997 290.48 26.6925 290.628 26.5395C290.773 26.3867 290.974 26.3009 291.181 26.3009Z" fill="white"/>
<path d="M400 26.2881L381.194 75.7097C381.194 75.7097 376.777 86.9419 374.794 91.3825C373.26 94.8924 371.55 98.3173 369.674 101.643H355.728V101.361C357.277 98.7279 358.977 95.7081 360.759 92.2496C362.54 88.7914 364.148 85.4164 365.537 82.1774L349.058 38.8682C348.999 38.7205 348.9 38.5938 348.773 38.5047C348.645 38.4154 348.497 38.3672 348.342 38.3666H334.467V82.1252H321.517V39.1189C321.515 38.9063 321.433 38.7033 321.288 38.553C321.143 38.4027 320.949 38.3171 320.743 38.3144H312.039V27.0925C312.039 26.8792 312.121 26.6745 312.266 26.5237C312.411 26.3728 312.61 26.2881 312.814 26.2881H321.517V24.4596C321.517 18.0755 323.37 13.1647 327.053 9.67491C330.733 6.18511 335.695 4.45065 341.873 4.45065C343.359 4.43938 344.845 4.56877 346.311 4.83724C346.489 4.87398 346.649 4.97473 346.762 5.12183C346.876 5.26892 346.937 5.45296 346.935 5.64178V16.5501C345.824 16.3605 344.7 16.2627 343.573 16.2575C341.198 16.1187 338.846 16.8184 336.904 18.2427C335.262 19.5906 334.457 21.6489 334.457 24.5118V26.3403H357.66C357.815 26.3477 357.965 26.4034 358.093 26.5002C358.218 26.5971 358.312 26.7304 358.363 26.8837L372.108 64.8224L385.914 26.2881H400Z" fill="white"/>
<path d="M76.4537 97.3489C76.5248 97.5247 76.5335 97.7208 76.4782 97.9027C76.4229 98.0845 76.3072 98.2399 76.1517 98.3414C75.367 98.8535 74.5519 99.3864 73.7269 99.7728C73.5016 99.9133 73.2661 100.036 73.0228 100.139C72.1853 100.631 71.322 101.074 70.4369 101.466C70.4175 101.474 70.3959 101.474 70.3765 101.466C69.6922 101.8 68.9778 102.093 68.2938 102.364C67.3678 102.719 66.4322 103.085 65.4964 103.409C64.1181 103.869 62.6893 104.276 61.2906 104.611L59.1778 105.081C47.569 107.399 35.5446 105.316 25.29 99.2087C23.9518 98.4252 22.6438 97.5682 21.3458 96.6383C20.7924 96.2309 20.229 95.8234 19.6655 95.3844C19.1021 94.9457 18.5688 94.4964 18.0355 94.0471C16.9288 93.0963 15.8521 92.1142 14.8259 91.0483C14.2423 90.4529 13.6889 89.8469 13.1355 89.2407C12.5821 88.6347 12.0186 87.9662 11.5256 87.3183C11.0326 86.6705 10.5195 85.9913 9.99625 85.3122C9.47304 84.6331 9.05045 83.9539 8.57755 83.2223C8.10465 82.491 7.57138 81.6133 7.04817 80.7672C3.68507 74.8235 1.45126 68.2652 0.467834 61.4476L0.407464 61.0299C0.326971 60.4552 0.286723 59.8805 0.20623 59.2952C-0.78827 47.9129 1.83252 36.5055 7.66828 26.8153C13.504 17.1251 22.2339 9.68506 32.5245 5.63157C33.1632 5.36068 33.8146 5.12354 34.4762 4.92107C34.5585 4.86649 34.6513 4.83087 34.7479 4.81658C35.865 4.45087 36.9818 4.12697 38.0785 3.83441C39.1751 3.54186 40.0001 3.39559 40.9862 3.21796C41.1694 3.18364 41.3583 3.21712 41.5201 3.31257C41.682 3.40805 41.8063 3.55944 41.8716 3.74038L48.2508 21.0536C48.2875 21.1537 48.3048 21.2604 48.3015 21.3674C48.298 21.4745 48.274 21.5798 48.2309 21.6771C48.1879 21.7744 48.1264 21.8619 48.0505 21.9342C47.9743 22.0066 47.8851 22.0624 47.788 22.0985L30.824 28.9423C30.6293 29.0175 30.4716 29.1697 30.3846 29.3653C30.298 29.5612 30.2896 29.7847 30.3612 29.9872L36.9012 47.6033C36.9777 47.8003 36.9762 48.0206 36.8972 48.2162C36.8179 48.4118 36.6675 48.5672 36.4787 48.6483L19.4542 55.4502C19.3571 55.4863 19.2679 55.5422 19.1918 55.6146C19.1157 55.6869 19.0543 55.7741 19.0112 55.8717C18.9681 55.969 18.9441 56.0742 18.9407 56.1813C18.9373 56.2884 18.9546 56.395 18.9914 56.4952L25.5315 74.1219C25.606 74.3218 25.7533 74.4835 25.9416 74.5715C26.13 74.6595 26.344 74.6669 26.5377 74.5919L43.5017 67.8318C43.5952 67.7894 43.6959 67.7674 43.7981 67.7666C43.9 67.7658 44.001 67.7867 44.095 67.8278C44.1891 67.8687 44.2742 67.9291 44.345 68.0052C44.4161 68.0813 44.4714 68.1716 44.5079 68.2705L51.0278 85.9285C51.0642 86.0277 51.1195 86.1178 51.1904 86.1939C51.2615 86.2699 51.3464 86.3304 51.4404 86.3715C51.5345 86.4126 51.6356 86.4332 51.7376 86.4324C51.8395 86.4319 51.9405 86.4096 52.034 86.3675L69.0382 79.6387C69.134 79.6 69.236 79.5817 69.3387 79.5846C69.4414 79.5873 69.5423 79.6114 69.6361 79.6552C69.7297 79.6989 69.814 79.7615 69.8841 79.8394C69.9542 79.9173 70.0087 80.0088 70.0444 80.1087L76.4537 97.3489Z" fill="white"/>
<path d="M110.675 18.1604C110.712 18.2598 110.73 18.3658 110.727 18.4724C110.724 18.579 110.701 18.6839 110.659 18.7811C110.617 18.8784 110.557 18.9659 110.482 19.0387C110.406 19.1115 110.318 19.1681 110.222 19.2052L95.8841 24.931C94.9941 25.2831 94.2729 25.9842 93.8758 26.8831C93.4787 27.7822 93.4377 28.8073 93.7611 29.7374V29.8106L99.2751 44.6683C99.3472 44.8692 99.34 45.0916 99.2552 45.2873C99.1706 45.4829 99.0148 45.6358 98.8222 45.7132L84.5045 51.418C83.6242 51.7942 82.9208 52.5133 82.5446 53.4215C82.1684 54.3294 82.1498 55.3544 82.4921 56.2766L87.9859 71.1553C88.0547 71.3578 88.0448 71.5802 87.9584 71.7753C87.872 71.9704 87.7157 72.1228 87.5231 72.2002L70.5489 78.9918C70.3552 79.0639 70.1422 79.0552 69.9546 78.9675C69.7667 78.8797 69.6192 78.7199 69.5427 78.5216L64.0591 63.6533C63.7099 62.743 63.0353 62.0085 62.1762 61.6034C61.3173 61.1984 60.3406 61.1541 59.4509 61.4799H59.3704L45.0223 67.1849C44.928 67.2255 44.8269 67.2459 44.7249 67.2451C44.6227 67.2443 44.5218 67.2226 44.428 67.1807C44.3342 67.1388 44.2496 67.0779 44.1787 67.0015C44.1081 66.9249 44.0528 66.8345 44.0161 66.7356L37.4962 49.088C37.4241 48.887 37.4312 48.6646 37.5161 48.469C37.6007 48.2734 37.7564 48.1204 37.9491 48.0433L54.883 41.283C55.0754 41.2103 55.2875 41.2175 55.4748 41.3031C55.6624 41.3887 55.8107 41.5462 55.8889 41.7426L61.3927 56.6109C61.734 57.5334 62.4094 58.2807 63.2744 58.6929C64.1394 59.1048 65.1252 59.1488 66.021 58.8156H66.1016L77.733 54.1555C78.623 53.8035 79.3443 53.1023 79.7413 52.2034C80.1384 51.3046 80.1794 50.2795 79.856 49.3493V49.2762L74.3421 34.4079C74.2699 34.2069 74.2771 33.9845 74.3619 33.7889C74.4466 33.5933 74.6023 33.4403 74.7949 33.3629L89.0925 27.6475H89.1631C90.0409 27.2714 90.7425 26.5541 91.1184 25.6485C91.4943 24.7429 91.5147 23.7205 91.1753 22.7995L85.6916 7.9208C85.6531 7.82153 85.6345 7.71521 85.6366 7.60822C85.6386 7.50123 85.6613 7.39576 85.7036 7.29816C85.7459 7.20055 85.8068 7.11287 85.8825 7.04031C85.9582 6.96776 86.0474 6.91186 86.1445 6.87594L103.179 0.0530506C103.275 0.0147978 103.378 -0.00309667 103.481 0.000437842C103.584 0.00397236 103.686 0.0288644 103.779 0.0736332C103.873 0.118402 103.957 0.182157 104.027 0.261157C104.097 0.340156 104.15 0.432801 104.185 0.533674L110.675 18.1604Z" fill="white"/>
<path d="M66.1889 22.256L71.0387 23.1023C71.1725 23.1265 71.2979 23.1862 71.4026 23.2757C71.5076 23.3653 71.5881 23.4815 71.6368 23.6131C71.6855 23.7447 71.7005 23.8871 71.6804 24.0265C71.66 24.1659 71.6055 24.2975 71.5216 24.4084L68.503 28.3996C67.5243 29.6879 66.8737 31.2116 66.6114 32.8299L65.7864 37.8661C65.765 38.0048 65.709 38.1352 65.6238 38.2444C65.5387 38.3536 65.4273 38.4379 65.3012 38.4886C65.175 38.5394 65.0382 38.5548 64.9046 38.5336C64.7708 38.5124 64.6446 38.4552 64.5389 38.3677L60.6851 35.2331C59.4477 34.2094 57.9795 33.5297 56.4189 33.2583L51.5793 32.4119C51.4272 32.4082 51.2794 32.3578 51.1545 32.2671C51.0296 32.1765 50.9333 32.0498 50.8774 31.9027C50.8214 31.7553 50.8086 31.5944 50.8405 31.4396C50.8724 31.285 50.9473 31.1435 51.0561 31.0327L54.0747 27.031C55.0572 25.7679 55.7214 24.2704 56.0066 22.6739L56.8216 17.6377C56.8461 17.4997 56.9047 17.3707 56.9916 17.2631C57.0783 17.1555 57.1904 17.073 57.3168 17.0236C57.4435 16.9743 57.5801 16.9596 57.7136 16.9812C57.8472 17.0027 57.9731 17.0597 58.0791 17.1466L61.9329 20.2812C63.1667 21.3045 64.6317 21.9842 66.1889 22.256Z" fill="white"/>
</svg>
