<svg width="21" height="21" viewBox="0 0 21 21" fill="none" xmlns="http://www.w3.org/2000/svg">
<path d="M13.0668 0.384409C12.5543 -0.128136 11.7219 -0.128136 11.2094 0.384409L6.28893 5.30484C5.77638 5.81739 5.77638 6.64976 6.28893 7.16231L6.94499 7.81836C7.45753 8.33091 8.28991 8.33091 8.80245 7.81836L8.96646 7.65435L13.3457 12.0294L13.1816 12.1934C12.6691 12.706 12.6691 13.5384 13.1816 14.0509L13.8377 14.707C14.3502 15.2195 15.1826 15.2195 15.6952 14.707L20.6156 9.78654C21.1281 9.27399 21.1281 8.44162 20.6156 7.92907L19.9595 7.27302C19.447 6.76047 18.6146 6.76047 18.1021 7.27302L17.9381 7.43703L13.5589 3.05784L13.7229 2.89383C14.2354 2.38128 14.2354 1.54891 13.7229 1.03637L13.0668 0.380309V0.384409ZM6.83428 12.1934C6.32173 11.6809 5.48936 11.6809 4.97681 12.1934L0.384409 16.7859C-0.128136 17.2984 -0.128136 18.1308 0.384409 18.6433L2.35258 20.6115C2.86513 21.124 3.6975 21.124 4.21005 20.6115L8.80245 16.0191C9.315 15.5065 9.315 14.6742 8.80245 14.1616L8.74505 14.1042L11.1561 11.6973L9.29859 9.83984L6.89168 12.2468L6.83428 12.1893V12.1934Z" fill="#2C00CA"/>
</svg>
