<svg width="18" height="20" viewBox="0 0 18 20" fill="none" xmlns="http://www.w3.org/2000/svg">
<path d="M1.25 0C1.94141 0 2.5 0.558594 2.5 1.25V1.875L5.19531 1.20312C6.68359 0.832031 8.25391 1.00391 9.62891 1.69141C11.4375 2.59766 13.5664 2.59766 15.375 1.69141L15.75 1.50391C16.5547 1.09766 17.5 1.68359 17.5 2.58203V3.99219L15.7539 4.625C14.082 5.23438 12.2383 5.16797 10.6133 4.44531L9.98438 4.16406C9.19141 3.8125 8.35156 3.58984 7.5 3.50391V4.76172C8.17969 4.84375 8.84375 5.02344 9.47656 5.30469L10.1055 5.58594C12.0273 6.44141 14.207 6.51562 16.1836 5.79688L17.5 5.32422V7.74609L15.7539 8.37891C14.082 8.98828 12.2383 8.92188 10.6133 8.19922L9.98438 7.91797C8.41406 7.21875 6.66406 7.03906 4.98047 7.39844L2.5 7.93359V9.21094L5.24219 8.62109C6.66406 8.31641 8.14453 8.46875 9.47656 9.0625L10.1055 9.34375C12.0273 10.1992 14.207 10.2734 16.1836 9.55469L17.5 9.07422V11.4961L15.7539 12.1289C14.082 12.7383 12.2383 12.6719 10.6133 11.9492L9.98438 11.668C8.41406 10.9688 6.66406 10.7891 4.98047 11.1484L2.5 11.6836V12.9609L5.24219 12.3711C6.66406 12.0664 8.14453 12.2188 9.47656 12.8125L10.1055 13.0938C12.0273 13.9492 14.207 14.0234 16.1836 13.3047L17.5 12.8242V14.1328C17.5 14.6523 17.1758 15.1211 16.6875 15.3047L15.332 15.8125C13.5273 16.4883 11.5195 16.3828 9.79688 15.5234C8.31641 14.7812 6.62109 14.5977 5.01172 15L2.5 15.625V18.75C2.5 19.4414 1.94141 20 1.25 20C0.558594 20 0 19.4414 0 18.75V16.25V13.4961V12.2188V9.74609V8.46875V5.99609V4.71875V2.5V1.25C0 0.558594 0.558594 0 1.25 0ZM4.375 3.75C4.375 3.58424 4.30915 3.42527 4.19194 3.30806C4.07473 3.19085 3.91576 3.125 3.75 3.125C3.58424 3.125 3.42527 3.19085 3.30806 3.30806C3.19085 3.42527 3.125 3.58424 3.125 3.75C3.125 3.91576 3.19085 4.07473 3.30806 4.19194C3.42527 4.30915 3.58424 4.375 3.75 4.375C3.91576 4.375 4.07473 4.30915 4.19194 4.19194C4.30915 4.07473 4.375 3.91576 4.375 3.75ZM5.625 3.75C5.79076 3.75 5.94973 3.68415 6.06694 3.56694C6.18415 3.44973 6.25 3.29076 6.25 3.125C6.25 2.95924 6.18415 2.80027 6.06694 2.68306C5.94973 2.56585 5.79076 2.5 5.625 2.5C5.45924 2.5 5.30027 2.56585 5.18306 2.68306C5.06585 2.80027 5 2.95924 5 3.125C5 3.29076 5.06585 3.44973 5.18306 3.56694C5.30027 3.68415 5.45924 3.75 5.625 3.75ZM4.375 5.625C4.375 5.45924 4.30915 5.30027 4.19194 5.18306C4.07473 5.06585 3.91576 5 3.75 5C3.58424 5 3.42527 5.06585 3.30806 5.18306C3.19085 5.30027 3.125 5.45924 3.125 5.625C3.125 5.79076 3.19085 5.94973 3.30806 6.06694C3.42527 6.18415 3.58424 6.25 3.75 6.25C3.91576 6.25 4.07473 6.18415 4.19194 6.06694C4.30915 5.94973 4.375 5.79076 4.375 5.625ZM5.625 5.625C5.79076 5.625 5.94973 5.55915 6.06694 5.44194C6.18415 5.32473 6.25 5.16576 6.25 5C6.25 4.83424 6.18415 4.67527 6.06694 4.55806C5.94973 4.44085 5.79076 4.375 5.625 4.375C5.45924 4.375 5.30027 4.44085 5.18306 4.55806C5.06585 4.67527 5 4.83424 5 5C5 5.16576 5.06585 5.32473 5.18306 5.44194C5.30027 5.55915 5.45924 5.625 5.625 5.625Z" fill="#2C00CA"/>
</svg>
