<svg width="27" height="18" viewBox="0 0 27 18" fill="none" xmlns="http://www.w3.org/2000/svg">
<path d="M24.5185 0.503751C24.7051 0.503751 24.89 0.538623 25.0606 0.605092C25.231 0.67154 25.3836 0.768011 25.5103 0.887468L25.5181 0.895339L25.527 0.902226C25.6658 1.02201 25.7743 1.16558 25.8477 1.32235C25.9211 1.47901 25.9579 1.64681 25.9579 1.81527C25.9579 1.98373 25.9211 2.15154 25.8477 2.3082C25.7743 2.46497 25.6658 2.60854 25.527 2.72832L25.5191 2.73423L25.5113 2.74111L10.1468 17.1108L10.1459 17.1128C10.0192 17.2322 9.86658 17.3287 9.69622 17.3952C9.52563 17.4616 9.3407 17.4965 9.1541 17.4965C8.96764 17.4964 8.78343 17.4616 8.61296 17.3952C8.44258 17.3287 8.29003 17.2322 8.16333 17.1128L8.16136 17.1108L0.931743 10.3485L0.924855 10.3426C0.792136 10.2227 0.687387 10.0812 0.615914 9.92744C0.544521 9.77371 0.506807 9.60953 0.503751 9.44435C0.500703 9.27909 0.532606 9.11399 0.598204 8.95831C0.663832 8.80259 0.762491 8.65814 0.890419 8.53425C1.0185 8.41025 1.17355 8.30957 1.34694 8.23908C1.52035 8.1686 1.70794 8.13003 1.89891 8.12692C2.08992 8.12383 2.27956 8.15642 2.45579 8.22137C2.6285 8.28509 2.78398 8.37903 2.91526 8.49588H2.91625L8.80974 14.0253L9.1541 14.3481L9.49846 14.0253L23.5267 0.888452L23.5277 0.887468C23.6544 0.767997 23.807 0.671541 23.9774 0.605092C24.1478 0.538677 24.3321 0.503807 24.5185 0.503751Z" fill="white" stroke="white"/>
</svg>
