<svg width="23" height="20" viewBox="0 0 23 20" fill="none" xmlns="http://www.w3.org/2000/svg">
<mask id="path-1-inside-1_1130_109" fill="white">
<path d="M13.8359 8.0721L22.2812 0H20.125L12.8656 6.91895L7.1875 0H0L8.84062 10.7628L0 19.2193H2.15625L9.81094 11.916L15.8125 19.2193H23L13.8359 8.0721ZM3.19844 1.28129H6.07344L19.7656 17.938H16.8906L3.19844 1.28129Z"/>
</mask>
<path d="M13.8359 8.0721L22.2812 0H20.125L12.8656 6.91895L7.1875 0H0L8.84062 10.7628L0 19.2193H2.15625L9.81094 11.916L15.8125 19.2193H23L13.8359 8.0721ZM3.19844 1.28129H6.07344L19.7656 17.938H16.8906L3.19844 1.28129Z" fill="white"/>
<path d="M13.8359 8.0721L10.3812 4.45761L7.0272 7.66336L9.97357 11.2473L13.8359 8.0721ZM22.2812 0L25.736 3.6145L34.7488 -5H22.2812V0ZM20.125 0V-5H18.1239L16.6754 -3.61938L20.125 0ZM12.8656 6.91895L9.00054 10.0909L12.4169 14.2538L16.3153 10.5383L12.8656 6.91895ZM7.1875 0L11.0526 -3.17193L9.55235 -5H7.1875V0ZM0 0V-5H-10.5776L-3.86368 3.17364L0 0ZM8.84062 10.7628L12.2968 14.376L15.6468 11.1715L12.7043 7.58916L8.84062 10.7628ZM0 19.2193L-3.45616 15.6061L-12.4606 24.2193H0V19.2193ZM2.15625 19.2193V24.2193H4.15886L5.60778 22.8369L2.15625 19.2193ZM9.81094 11.916L13.6739 8.74151L10.2553 4.58132L6.3594 8.29838L9.81094 11.916ZM15.8125 19.2193L11.9495 22.3937L13.4496 24.2193H15.8125V19.2193ZM23 19.2193V24.2193H33.5832L26.8624 16.0441L23 19.2193ZM3.19844 1.28129V-3.71871H-7.38415L-0.66407 4.45635L3.19844 1.28129ZM6.07344 1.28129L9.93594 -1.89378L8.43581 -3.71871H6.07344V1.28129ZM19.7656 17.938V22.938H30.3482L23.6281 14.7629L19.7656 17.938ZM16.8906 17.938L13.0281 21.1131L14.5283 22.938H16.8906V17.938ZM13.8359 8.0721L17.2907 11.6866L25.736 3.6145L22.2812 0L18.8265 -3.6145L10.3812 4.45761L13.8359 8.0721ZM22.2812 0V-5H20.125V0V5H22.2812V0ZM20.125 0L16.6754 -3.61938L9.41598 3.29956L12.8656 6.91895L16.3153 10.5383L23.5746 3.61938L20.125 0ZM12.8656 6.91895L16.7307 3.74701L11.0526 -3.17193L7.1875 0L3.32242 3.17193L9.00054 10.0909L12.8656 6.91895ZM7.1875 0V-5H0V0V5H7.1875V0ZM0 0L-3.86368 3.17364L4.97695 13.9364L8.84062 10.7628L12.7043 7.58916L3.86368 -3.17364L0 0ZM8.84062 10.7628L5.38446 7.14964L-3.45616 15.6061L0 19.2193L3.45616 22.8325L12.2968 14.376L8.84062 10.7628ZM0 19.2193V24.2193H2.15625V19.2193V14.2193H0V19.2193ZM2.15625 19.2193L5.60778 22.8369L13.2625 15.5335L9.81094 11.916L6.3594 8.29838L-1.29528 15.6017L2.15625 19.2193ZM9.81094 11.916L5.94793 15.0904L11.9495 22.3937L15.8125 19.2193L19.6755 16.0448L13.6739 8.74151L9.81094 11.916ZM15.8125 19.2193V24.2193H23V19.2193V14.2193H15.8125V19.2193ZM23 19.2193L26.8624 16.0441L17.6983 4.89687L13.8359 8.0721L9.97357 11.2473L19.1376 22.3945L23 19.2193ZM3.19844 1.28129V6.28129H6.07344V1.28129V-3.71871H3.19844V1.28129ZM6.07344 1.28129L2.21093 4.45635L15.9031 21.1131L19.7656 17.938L23.6281 14.7629L9.93594 -1.89378L6.07344 1.28129ZM19.7656 17.938V12.938H16.8906V17.938V22.938H19.7656V17.938ZM16.8906 17.938L20.7531 14.7629L7.06094 -1.89378L3.19844 1.28129L-0.66407 4.45635L13.0281 21.1131L16.8906 17.938Z" fill="white" mask="url(#path-1-inside-1_1130_109)"/>
</svg>
